<svg xmlns="http://www.w3.org/2000/svg" aria-hidden="true" style="position:absolute;width:0;height:0;overflow:hidden">
  <defs>
    <symbol id="icon-closed-half-left" viewBox="0 0 32 32">
      <path stroke-linecap="round" stroke-linejoin="round" stroke-width="4" d="m2.4 2.4 27.2 27.2" />
    </symbol>
    <symbol id="icon-closed-half-right" viewBox="0 0 32 32">
      <path stroke-linecap="round" stroke-linejoin="round" stroke-width="4" d="M29.6 2.4 2.4 29.6" />
    </symbol>
    <symbol id="icon-facebook" viewBox="0 0 34 32">
      <path
        d="M20.32 4.64h.96v3.6h-1.2c-.48 0-.96 0-1.2.24s-.24.48-.24 1.04v1.28h2.64v3.04h-2.64v13.2h-4.08V13.76H12.4v-3.04h2.16V9.68c0-1.76.24-3.04.72-3.6.72-1.04 2.16-1.52 4.32-1.52.24.08.48.08.72.08z" />
    </symbol>
    <symbol id="icon-header-menu" viewBox="0 0 68 32">
      <path stroke-linecap="round" stroke-linejoin="round" stroke-width="6" d="M4 4.333h60M4 27.667h60" />
    </symbol>
    <symbol id="icon-inst" viewBox="0 0 34 32">
      <path
        d="M32.897 9.445a11.557 11.557 0 0 0-.745-3.931A8.18 8.18 0 0 0 27.473.843a11.734 11.734 0 0 0-3.885-.745C21.879.022 21.337 0 16.997 0s-4.896 0-6.593.098a11.763 11.763 0 0 0-3.883.745 8.18 8.18 0 0 0-4.679 4.671 11.621 11.621 0 0 0-.745 3.876c-.076 1.708-.1 2.249-.1 6.582s0 4.886.1 6.582a11.68 11.68 0 0 0 .745 3.88 8.18 8.18 0 0 0 4.681 4.669c1.237.482 2.55.756 3.883.798 1.711.076 2.253.099 6.593.099s4.896 0 6.593-.099a11.756 11.756 0 0 0 3.885-.743 8.198 8.198 0 0 0 4.679-4.671c.467-1.242.718-2.551.744-3.88.076-1.707.1-2.248.1-6.582-.004-4.332-.004-4.882-.103-6.58zM16.988 24.164c-4.538 0-8.215-3.671-8.215-8.201s3.677-8.201 8.215-8.201c4.535 0 8.215 3.67 8.215 8.201s-3.68 8.201-8.215 8.201zM25.53 9.37a1.912 1.912 0 1 1 0-3.824 1.912 1.912 0 1 1 0 3.824z" />
    </symbol>
    <symbol id="icon-youtube" viewBox="0 0 34 32">
      <path
        d="M25.04 6c-1.36-.08-4.16-.16-8.4-.16h-.56c-4.08 0-6.8.08-8.16.24-1.84.16-3.12.64-3.84 1.28-.64.56-1.12 1.6-1.28 2.96-.08.88-.16 2.72-.16 5.52v.4c0 2.64.08 4.48.24 5.36.24 1.28.64 2.24 1.44 2.8.8.64 2.16 1.04 4.08 1.2 1.36.08 4.16.16 8.4.16h.56c4.08 0 6.8-.08 8.16-.24 1.84-.16 3.12-.64 3.84-1.28.64-.56 1.12-1.6 1.28-2.96.08-.88.16-2.72.16-5.52v-.4c0-2.64-.08-4.48-.24-5.36-.24-1.28-.64-2.24-1.44-2.8-.8-.64-2.16-1.04-4.08-1.2zm-3.12 9.84-8.8 5.28V10.56l8.8 5.28z" />
    </symbol>
  </defs>
</svg>